<svg xmlns="http://www.w3.org/2000/svg" width="111" height="40" viewBox="0 0 111 40" fill="none"><g clip-path="url(#clip0_10590_72864)"><path d="M103.141 0H7.00343C3.13554 0 0 3.17733 0 7.09677V32.9032C0 36.8227 3.13554 40 7.00343 40H103.141C107.009 40 110.145 36.8227 110.145 32.9032V7.09677C110.145 3.17733 107.009 0 103.141 0Z" fill="white"></path><path fill-rule="evenodd" clip-rule="evenodd" d="M76.5865 13.1173H75.8626H75.7976C75.6665 13.1173 75.543 13.183 75.4685 13.2928C75.4239 13.3615 75.4016 13.4437 75.4023 13.5268C75.4023 14.8864 75.4023 16.2461 75.4023 17.6068C75.4023 19.5073 75.4023 21.4078 75.4023 23.3082C75.4023 24.0214 75.3914 24.7305 75.8982 25.299C76.7291 26.2297 78.3908 26.3046 79.5566 26.3878C81.1603 26.5017 82.9819 26.4288 84.4742 25.7741C84.5436 25.8049 84.6175 25.8326 84.6926 25.8603C86.9611 26.6782 89.4913 26.8761 91.8132 26.0512C91.9794 26.0142 92.5645 25.7239 92.6816 25.7731C92.9516 25.885 93.2292 25.9732 93.5125 26.0379C94.7101 26.2882 95.9319 26.3909 97.1537 26.3416H97.1708C97.8928 26.3416 98.6206 26.2554 99.3266 26.1159C99.934 25.9958 100.592 25.8655 101.083 25.4622C101.941 24.7582 101.759 23.5648 101.759 22.5735C101.759 21.5453 101.759 20.5171 101.759 19.4899C101.759 19.2631 101.759 19.0363 101.759 18.8095C101.756 18.5837 101.577 18.4032 101.357 18.4042H100.569C100.11 18.4032 99.6908 18.6751 99.4941 19.102C99.4183 19.2631 99.3788 19.4396 99.3788 19.6192C99.3788 20.2544 99.3788 20.8906 99.3788 21.5258C99.3788 21.9988 99.3788 22.4719 99.3788 22.945C99.3788 23.2744 99.4953 23.9362 99.2349 24.1651C99.1102 24.2739 98.9459 24.3232 98.7855 24.3632C97.4497 24.6997 96.042 24.6823 94.6846 24.4493C93.7118 24.2821 93.878 23.6294 93.878 22.8342C93.878 22.3672 93.878 21.9013 93.878 21.4344C93.878 20.6966 93.9811 19.8706 93.8047 19.1502C93.3463 17.2795 90.5017 17.2846 88.9991 17.2456C88.16 17.223 87.3189 17.2754 86.4881 17.4006C85.5235 17.5463 84.3214 17.6407 83.6752 18.4781C83.0054 19.3462 83.2741 20.5786 83.2741 21.5935C83.2741 22.0707 83.2741 22.5479 83.2741 23.025C83.2741 23.6664 83.3384 24.2226 82.6362 24.4976C82.3879 24.5951 82.1185 24.6248 81.8531 24.6443C80.9445 24.7131 80.0283 24.6833 79.1262 24.5561C78.3163 24.4422 77.6815 24.163 77.7051 23.2374C77.7344 22.044 77.7777 20.8546 77.7777 19.6572C77.7777 18.6412 77.7777 17.6242 77.7777 16.6084C77.7777 15.9311 77.7777 15.2548 77.7777 14.5776C77.7777 14.4955 77.7777 14.4144 77.7777 14.3323C77.7764 14.1445 77.7325 13.9598 77.6497 13.7915C77.4492 13.377 77.0366 13.1163 76.5865 13.1173ZM61.0165 13.1173H61.8045C62.1198 13.1173 62.421 13.2456 62.6445 13.4744L62.6701 13.5021C62.7302 13.5668 62.7833 13.6386 62.8272 13.7146C62.9365 13.9013 62.9946 14.1148 62.9946 14.3323V25.9475C62.9946 26.0563 62.9527 26.16 62.8772 26.237C62.8017 26.3129 62.7006 26.355 62.5945 26.3539H61.8065C61.6411 26.3539 61.4788 26.3159 61.3299 26.2431C61.192 26.1764 61.0686 26.0851 60.9634 25.9722C60.7439 25.7372 60.6184 25.4262 60.6133 25.101V13.5268C60.6225 13.3031 60.7991 13.1255 61.0165 13.1214V13.1173ZM70.354 21.9948C70.7539 21.9527 71.1524 21.9044 71.5472 21.8593C71.644 21.848 71.7401 21.8367 71.8381 21.8367H71.842V24.0502C71.8451 24.1743 71.8031 24.2944 71.7235 24.3878C71.2498 24.8865 70.156 24.7941 69.5302 24.8167C68.8961 24.8393 68.2607 24.8229 67.6284 24.7675C67.1847 24.7284 66.5588 24.5232 66.2335 24.944C66.1692 25.0281 66.1189 25.1215 66.0845 25.2231C66.0406 25.3472 66.0075 25.4745 65.9852 25.6038C65.9374 25.8029 66.0387 26.0092 66.2233 26.0871C66.2863 26.1117 66.3557 26.1343 66.4321 26.1559C68.246 26.4483 70.2089 26.5263 72.0126 26.1322C72.4022 26.0471 72.7925 25.9352 73.1344 25.73C73.5597 25.4745 73.864 25.0712 73.9818 24.5868C74.0232 24.4104 74.0436 24.2287 74.0429 24.0471V15.496C74.0429 15.3102 74.0181 15.1255 73.9704 14.947C73.568 13.4365 71.4969 13.2774 70.2108 13.1594C69.2711 13.0722 68.3218 13.0968 67.3865 13.2333C66.562 13.3533 65.4803 13.4765 64.8481 14.0768L64.822 14.1035C64.6832 14.2564 64.5673 14.4298 64.4775 14.6176C64.4285 14.7212 64.3878 14.829 64.3553 14.9398C64.2814 15.2035 64.2451 15.4765 64.2439 15.7505V15.8398V19.8942C64.2407 19.9239 64.2407 19.9547 64.2439 19.9844C64.2604 20.1035 64.2827 20.2205 64.3145 20.3364C64.4011 20.6812 64.5737 20.9953 64.8169 21.2487C64.8678 21.3021 64.9219 21.3524 64.978 21.3985C65.2358 21.6038 65.5312 21.7536 65.8464 21.8398C67.3196 22.2379 68.8483 22.1538 70.354 21.9948ZM71.8388 15.6315V20.081C70.2324 20.2718 68.6484 20.5181 67.0312 20.2872C66.9765 20.278 66.9224 20.2646 66.8695 20.2472C66.8409 20.239 66.8129 20.2308 66.7867 20.2195C66.7263 20.1959 66.669 20.161 66.6199 20.1179C66.5735 20.0768 66.5353 20.0255 66.5092 19.9691C66.4722 19.8911 66.4487 19.807 66.4372 19.7208V19.2857V18.3057V17.3144V16.3005V16.1446C66.4219 15.7515 66.527 15.3205 66.9243 15.1656C67.0662 15.1102 67.2184 15.0897 67.3693 15.0701C68.1155 14.9737 68.8668 14.8916 69.62 14.905C70.3273 14.9172 71.0983 14.9768 71.7229 15.3401C71.7624 15.3811 71.7929 15.4293 71.8146 15.4826C71.8311 15.5299 71.84 15.5801 71.8388 15.6315ZM87.3724 24.5612C87.7506 24.5941 88.16 24.6104 88.5795 24.6104H88.7247C89.2041 24.6084 89.6829 24.5786 90.1598 24.5222C90.5844 24.5048 90.9989 24.3847 91.3694 24.1713L91.3866 24.1517C91.4236 24.1159 91.4529 24.0717 91.4732 24.0245C91.4911 23.9762 91.4987 23.926 91.4968 23.8747V19.7679C91.4968 19.7166 91.4879 19.6664 91.4681 19.6192C91.4478 19.571 91.4185 19.5278 91.3816 19.4919L91.3714 19.4817C91.3204 19.4375 91.2644 19.4016 91.2039 19.3739C90.3514 19.1061 89.4613 18.9912 88.5725 19.0342C87.9721 19.0633 86.6619 19.104 85.7782 19.4786L85.7648 19.494C85.7463 19.5124 85.7298 19.5319 85.7158 19.5535C85.7011 19.575 85.689 19.5976 85.6788 19.6212C85.6597 19.6684 85.6502 19.7187 85.6502 19.77V23.8768C85.6502 23.9281 85.6597 23.9783 85.6788 24.0255C85.696 24.0666 85.7196 24.1046 85.7482 24.1374L85.7648 24.1528L85.7832 24.1733C85.8278 24.2113 85.8781 24.2431 85.931 24.2677C86.39 24.4432 86.8739 24.5427 87.3641 24.5622L87.3724 24.5612ZM101.027 14.5375H100.156C99.6934 14.5365 99.3177 14.9203 99.3145 15.3954V16.0706C99.3177 16.5458 99.694 16.9295 100.156 16.9295H101.027C101.489 16.9306 101.865 16.5468 101.868 16.0706V15.3964C101.865 14.9203 101.489 14.5365 101.027 14.5375Z" fill="#99C14D"></path><path fill-rule="evenodd" clip-rule="evenodd" d="M8.94757 5.16113C6.81808 5.16113 5.0918 6.91042 5.0918 9.06829V30.7764C5.0918 32.9343 6.81808 34.6836 8.94757 34.6836H46.8612C48.9907 34.6836 50.717 32.9343 50.717 30.7764V9.06829C50.717 6.91042 48.9907 5.16113 46.8612 5.16113H8.94757ZM15.1003 14.6306H12.7876V25.2141H20.111V23.2184H15.1003V14.6306ZM23.3193 14.6306H21.0066V25.2141H23.3193V14.6306ZM34.846 14.6306L30.5204 25.2141H28.2364L23.9251 14.6306H26.4234L29.4641 22.1902L32.5476 14.6306H34.846ZM43.0211 25.2141V23.2486H37.5821V20.7993H42.2217V18.8942H37.5821V16.5961H42.8355V14.6306H35.2837V25.2141H43.0211Z" fill="url(#paint0_linear_10590_72864)"></path></g><defs><linearGradient id="paint0_linear_10590_72864" x1="48.9953" y1="8.11339" x2="0.421945" y2="51.2966" gradientUnits="userSpaceOnUse"><stop stop-color="#67C84E"></stop><stop offset="0.439084" stop-color="#35B07D"></stop><stop offset="0.88648" stop-color="#2881D2"></stop></linearGradient><clipPath id="clip0_10590_72864"><rect width="110.145" height="40" fill="white"></rect></clipPath></defs></svg>