<svg xmlns="http://www.w3.org/2000/svg" width="120" height="120" viewBox="0 0 120 120" fill="none" class="propertyIcon-0-1-251"><path fill-rule="evenodd" clip-rule="evenodd" d="M60 120C93.1371 120 120 93.1371 120 60C120 26.8629 93.1371 0 60 0C26.8629 0 0 26.8629 0 60C0 93.1371 26.8629 120 60 120ZM62.7321 69.6138L76.0993 56.2467C77.1663 55.1797 78.8962 55.1797 79.9631 56.2467C81.0301 57.3136 81.0301 59.0435 79.9631 60.1105L61.9319 78.1417C60.865 79.2087 59.1351 79.2087 58.0681 78.1417L40.0369 60.1105C38.9699 59.0435 38.9699 57.3136 40.0369 56.2467C41.1038 55.1797 42.8337 55.1797 43.9007 56.2467L57.2679 69.6138V30.8571C57.2679 29.3482 58.4911 28.125 60 28.125C61.5089 28.125 62.7321 29.3482 62.7321 30.8571V69.6138ZM82.7679 86.411C84.2768 86.411 85.5 87.6342 85.5 89.1432C85.5 90.6521 84.2768 91.8753 82.7679 91.8753H37.2321C35.7232 91.8753 34.5 90.6521 34.5 89.1432C34.5 87.6342 35.7232 86.411 37.2321 86.411H82.7679Z" fill="url(#paint0_linear_10126_80945)"></path><path fill-rule="evenodd" clip-rule="evenodd" d="M60 120C93.1371 120 120 93.1371 120 60C120 26.8629 93.1371 0 60 0C26.8629 0 0 26.8629 0 60C0 93.1371 26.8629 120 60 120ZM62.7321 69.6138L76.0993 56.2467C77.1663 55.1797 78.8962 55.1797 79.9631 56.2467C81.0301 57.3136 81.0301 59.0435 79.9631 60.1105L61.9319 78.1417C60.865 79.2087 59.1351 79.2087 58.0681 78.1417L40.0369 60.1105C38.9699 59.0435 38.9699 57.3136 40.0369 56.2467C41.1038 55.1797 42.8337 55.1797 43.9007 56.2467L57.2679 69.6138V30.8571C57.2679 29.3482 58.4911 28.125 60 28.125C61.5089 28.125 62.7321 29.3482 62.7321 30.8571V69.6138ZM82.7679 86.411C84.2768 86.411 85.5 87.6342 85.5 89.1432C85.5 90.6521 84.2768 91.8753 82.7679 91.8753H37.2321C35.7232 91.8753 34.5 90.6521 34.5 89.1432C34.5 87.6342 35.7232 86.411 37.2321 86.411H82.7679Z" fill="url(#paint1_linear_10126_80945)"></path><defs><linearGradient id="paint0_linear_10126_80945" x1="60" y1="0" x2="60" y2="120" gradientUnits="userSpaceOnUse"><stop stop-color="#DD58AE"></stop><stop offset="1" stop-color="#9C4646"></stop></linearGradient><linearGradient id="paint1_linear_10126_80945" x1="60" y1="0" x2="60" y2="120" gradientUnits="userSpaceOnUse"><stop stop-color="#CB6247"></stop><stop offset="0.0001" stop-color="#CB6247"></stop><stop offset="1" stop-color="#F9B410"></stop></linearGradient></defs></svg>