<svg xmlns="http://www.w3.org/2000/svg" width="120" height="120" viewBox="0 0 120 120" fill="none" class="propertyIcon-0-1-251"><path fill-rule="evenodd" clip-rule="evenodd" d="M60 120C93.1371 120 120 93.1371 120 60C120 26.8629 93.1371 0 60 0C26.8629 0 0 26.8629 0 60C0 93.1371 26.8629 120 60 120ZM45.2673 45.3336L63.734 26.8669C65.6673 24.9002 68.8007 24.9002 70.7673 26.8336C71.9673 28.0336 72.4673 29.7336 72.134 31.4002L68.9673 46.6669H87.8007C94.9673 46.6669 99.8007 54.0002 97.0006 60.6002L86.134 85.9669C85.0673 88.4002 82.6673 90.0002 80.0006 90.0002H50.0006C46.334 90.0002 43.334 87.0002 43.334 83.3336V50.0336C43.334 48.2669 44.034 46.5669 45.2673 45.3336ZM36.6673 83.3336C36.6673 87.0002 33.6673 90.0002 30.0007 90.0002C26.334 90.0002 23.334 87.0002 23.334 83.3336V56.6669C23.334 53.0002 26.334 50.0002 30.0007 50.0002C33.6673 50.0002 36.6673 53.0002 36.6673 56.6669V83.3336Z" fill="url(#paint0_linear_10126_80940)"></path><defs><linearGradient id="paint0_linear_10126_80940" x1="60" y1="0" x2="60" y2="120" gradientUnits="userSpaceOnUse"><stop stop-color="#5B942F"></stop><stop offset="1" stop-color="#B9F887"></stop></linearGradient></defs></svg>