<svg width="63" height="63" viewBox="0 0 63 63" fill="none" xmlns="http://www.w3.org/2000/svg" class="planIcon-0-1-265 silverPlanIcon-0-1-266"><path d="M36.6584 4.46355L42.1584 15.4636C42.9084 16.9636 44.9084 18.4636 46.5751 18.7136L56.5334 20.3802C62.9084 21.4636 64.4084 26.0469 59.8251 30.6302L52.0751 38.4219C50.7834 39.7136 50.0334 42.2552 50.4501 44.0886L52.6584 53.7136C54.4084 61.2969 50.3668 64.2552 43.6584 60.2969L34.3251 54.7552C32.6168 53.7552 29.8668 53.7552 28.1584 54.7552L18.7834 60.2552C12.0751 64.2136 8.03342 61.2552 9.78342 53.6719L11.9918 44.0469C12.4084 42.2552 11.6584 39.7136 10.3668 38.3802L2.65842 30.6719C-1.92492 26.0886 -0.424916 21.4636 5.95008 20.4219L15.9084 18.7552C17.5751 18.4636 19.5751 17.0052 20.3251 15.5052L25.8251 4.50522C28.7834 -1.49478 33.7001 -1.49478 36.6584 4.46355Z" fill="url(#paint0_linear_13774_82167)"></path><path d="M36.6584 4.46355L42.1584 15.4636C42.9084 16.9636 44.9084 18.4636 46.5751 18.7136L56.5334 20.3802C62.9084 21.4636 64.4084 26.0469 59.8251 30.6302L52.0751 38.4219C50.7834 39.7136 50.0334 42.2552 50.4501 44.0886L52.6584 53.7136C54.4084 61.2969 50.3668 64.2552 43.6584 60.2969L34.3251 54.7552C32.6168 53.7552 29.8668 53.7552 28.1584 54.7552L18.7834 60.2552C12.0751 64.2136 8.03342 61.2552 9.78342 53.6719L11.9918 44.0469C12.4084 42.2552 11.6584 39.7136 10.3668 38.3802L2.65842 30.6719C-1.92492 26.0886 -0.424916 21.4636 5.95008 20.4219L15.9084 18.7552C17.5751 18.4636 19.5751 17.0052 20.3251 15.5052L25.8251 4.50522C28.7834 -1.49478 33.7001 -1.49478 36.6584 4.46355Z" fill="url(#paint1_linear_13774_82167)"></path><defs><linearGradient id="paint0_linear_13774_82167" x1="31.2418" y1="0" x2="31.2418" y2="62.0538" gradientUnits="userSpaceOnUse"><stop stop-color="white"></stop><stop offset="1" stop-color="white" stop-opacity="0"></stop></linearGradient><linearGradient id="paint1_linear_13774_82167" x1="11.6002" y1="-25.7573" x2="49.9924" y2="48.3502" gradientUnits="userSpaceOnUse"><stop stop-color="#C7C7C7"></stop><stop offset="0.0001" stop-color="#C7C7C7"></stop><stop offset="0.484375" stop-color="#EEEEEE"></stop><stop offset="1" stop-color="#C7C7C7"></stop></linearGradient></defs></svg>