<svg xmlns="http://www.w3.org/2000/svg" width="120" height="120" viewBox="0 0 120 120" fill="none" class="propertyIcon-0-1-251"><path fill-rule="evenodd" clip-rule="evenodd" d="M120 60C120 93.1371 93.1371 120 60 120C26.8629 120 0 93.1371 0 60C0 26.8629 26.8629 0 60 0C93.1371 0 120 26.8629 120 60ZM59.9998 26.667C51.2665 26.667 44.1665 33.767 44.1665 42.5003C44.1665 51.067 50.8665 58.0003 59.5998 58.3003C59.8665 58.267 60.1332 58.267 60.3332 58.3003H60.4998H60.5665C69.0998 58.0003 75.7998 51.067 75.8332 42.5003C75.8332 33.767 68.7332 26.667 59.9998 26.667ZM43.0999 67.1666C52.4665 60.9666 67.6332 60.9666 76.9332 67.1666C81.1332 69.9666 83.4332 73.7666 83.4665 77.8666C83.4665 81.9999 81.1332 85.7999 76.9332 88.6333C72.2665 91.7666 66.1332 93.3333 59.9999 93.3333C53.8665 93.3333 47.7332 91.7666 43.0665 88.6333C38.8665 85.8333 36.5332 82.0333 36.5332 77.9333C36.5332 73.8333 38.8665 69.9999 43.0999 67.1666Z" fill="url(#paint0_linear_10126_80944)"></path><path fill-rule="evenodd" clip-rule="evenodd" d="M120 60C120 93.1371 93.1371 120 60 120C26.8629 120 0 93.1371 0 60C0 26.8629 26.8629 0 60 0C93.1371 0 120 26.8629 120 60ZM59.9998 26.667C51.2665 26.667 44.1665 33.767 44.1665 42.5003C44.1665 51.067 50.8665 58.0003 59.5998 58.3003C59.8665 58.267 60.1332 58.267 60.3332 58.3003H60.4998H60.5665C69.0998 58.0003 75.7998 51.067 75.8332 42.5003C75.8332 33.767 68.7332 26.667 59.9998 26.667ZM43.0999 67.1666C52.4665 60.9666 67.6332 60.9666 76.9332 67.1666C81.1332 69.9666 83.4332 73.7666 83.4665 77.8666C83.4665 81.9999 81.1332 85.7999 76.9332 88.6333C72.2665 91.7666 66.1332 93.3333 59.9999 93.3333C53.8665 93.3333 47.7332 91.7666 43.0665 88.6333C38.8665 85.8333 36.5332 82.0333 36.5332 77.9333C36.5332 73.8333 38.8665 69.9999 43.0999 67.1666Z" fill="url(#paint1_linear_10126_80944)"></path><defs><linearGradient id="paint0_linear_10126_80944" x1="60" y1="0" x2="60" y2="120" gradientUnits="userSpaceOnUse"><stop stop-color="#CB6247"></stop><stop offset="0.0001" stop-color="#CB6247"></stop><stop offset="1" stop-color="#F9B410"></stop></linearGradient><linearGradient id="paint1_linear_10126_80944" x1="60" y1="0" x2="60" y2="120" gradientUnits="userSpaceOnUse"><stop stop-color="#DD58AE"></stop><stop offset="1" stop-color="#9C4646"></stop></linearGradient></defs></svg>