<svg xmlns="http://www.w3.org/2000/svg" width="23" height="24" viewBox="0 0 23 24" fill="none"><path d="M16.0478 10.41V8.52191C16.0478 5.91504 13.9345 3.80176 11.3276 3.80176C8.72076 3.80176 6.60748 5.91504 6.60748 8.52191V10.41M11.3276 14.6581V16.5462M8.30673 20.7943H14.3485C15.9346 20.7943 16.7277 20.7943 17.3335 20.4856C17.8664 20.2141 18.2997 19.7808 18.5712 19.2479C18.8799 18.6421 18.8799 17.8491 18.8799 16.263V14.9413C18.8799 13.3552 18.8799 12.5621 18.5712 11.9563C18.2997 11.4234 17.8664 10.9902 17.3335 10.7186C16.7277 10.41 15.9346 10.41 14.3485 10.41H8.30673C6.72062 10.41 5.92756 10.41 5.32174 10.7186C4.78885 10.9902 4.35559 11.4234 4.08407 11.9563C3.77539 12.5621 3.77539 13.3552 3.77539 14.9413V16.263C3.77539 17.8491 3.77539 18.6421 4.08407 19.2479C4.35559 19.7808 4.78885 20.2141 5.32174 20.4856C5.92756 20.7943 6.72062 20.7943 8.30673 20.7943Z" stroke="white" stroke-width="1.88806" stroke-linecap="round" stroke-linejoin="round"></path></svg>