<svg xmlns="http://www.w3.org/2000/svg" width="90" height="90" viewBox="0 0 90 90" fill="none" class="planIcon-0-1-265"><g filter="url(#filter0_d_11580_76710)"><path d="M83.5005 53.2676C82.0655 53.2676 80.8755 54.4576 80.8755 55.8926C80.8755 66.2526 73.6655 74.9326 63.9705 77.2076L64.9155 75.6326C65.6505 74.3726 65.2655 72.7626 64.0055 72.0276C62.7805 71.2926 61.1355 71.6776 60.4005 72.9376L56.7255 79.0626C56.2355 79.8676 56.2355 80.8826 56.6905 81.6876C57.1455 82.5276 58.0205 83.0176 58.9655 83.0176C73.9105 83.0176 86.0905 70.8376 86.0905 55.8926C86.1255 54.4576 84.9355 53.2676 83.5005 53.2676Z" fill="url(#paint0_linear_11580_76710)"></path><path d="M83.5005 53.2676C82.0655 53.2676 80.8755 54.4576 80.8755 55.8926C80.8755 66.2526 73.6655 74.9326 63.9705 77.2076L64.9155 75.6326C65.6505 74.3726 65.2655 72.7626 64.0055 72.0276C62.7805 71.2926 61.1355 71.6776 60.4005 72.9376L56.7255 79.0626C56.2355 79.8676 56.2355 80.8826 56.6905 81.6876C57.1455 82.5276 58.0205 83.0176 58.9655 83.0176C73.9105 83.0176 86.0905 70.8376 86.0905 55.8926C86.1255 54.4576 84.9355 53.2676 83.5005 53.2676Z" fill="url(#paint1_linear_11580_76710)"></path><path d="M83.5005 53.2676C82.0655 53.2676 80.8755 54.4576 80.8755 55.8926C80.8755 66.2526 73.6655 74.9326 63.9705 77.2076L64.9155 75.6326C65.6505 74.3726 65.2655 72.7626 64.0055 72.0276C62.7805 71.2926 61.1355 71.6776 60.4005 72.9376L56.7255 79.0626C56.2355 79.8676 56.2355 80.8826 56.6905 81.6876C57.1455 82.5276 58.0205 83.0176 58.9655 83.0176C73.9105 83.0176 86.0905 70.8376 86.0905 55.8926C86.1255 54.4576 84.9355 53.2676 83.5005 53.2676Z" fill="url(#paint2_linear_11580_76710)"></path><path d="M31 0.767578C16.055 0.767578 3.875 12.9476 3.875 27.8926C3.875 29.3276 5.065 30.5176 6.5 30.5176C7.935 30.5176 9.125 29.3276 9.125 27.8926C9.125 17.5326 16.335 8.85258 26.03 6.57758L25.085 8.15258C24.35 9.41258 24.735 11.0226 25.995 11.7576C27.22 12.4926 28.865 12.1076 29.6 10.8476L33.275 4.72258C33.73 3.91758 33.765 2.93758 33.275 2.09758C32.82 1.29258 31.945 0.767578 31 0.767578Z" fill="url(#paint3_linear_11580_76710)"></path><path d="M31 0.767578C16.055 0.767578 3.875 12.9476 3.875 27.8926C3.875 29.3276 5.065 30.5176 6.5 30.5176C7.935 30.5176 9.125 29.3276 9.125 27.8926C9.125 17.5326 16.335 8.85258 26.03 6.57758L25.085 8.15258C24.35 9.41258 24.735 11.0226 25.995 11.7576C27.22 12.4926 28.865 12.1076 29.6 10.8476L33.275 4.72258C33.73 3.91758 33.765 2.93758 33.275 2.09758C32.82 1.29258 31.945 0.767578 31 0.767578Z" fill="url(#paint4_linear_11580_76710)"></path><path d="M31 0.767578C16.055 0.767578 3.875 12.9476 3.875 27.8926C3.875 29.3276 5.065 30.5176 6.5 30.5176C7.935 30.5176 9.125 29.3276 9.125 27.8926C9.125 17.5326 16.335 8.85258 26.03 6.57758L25.085 8.15258C24.35 9.41258 24.735 11.0226 25.995 11.7576C27.22 12.4926 28.865 12.1076 29.6 10.8476L33.275 4.72258C33.73 3.91758 33.765 2.93758 33.275 2.09758C32.82 1.29258 31.945 0.767578 31 0.767578Z" fill="url(#paint5_linear_11580_76710)"></path><path d="M58.9792 24.935L58.8035 34.4479C58.7784 35.7531 59.6067 37.485 60.6609 38.2631L66.8857 42.982C70.8767 45.994 70.2241 49.6837 65.455 51.1897L57.3477 53.7248C55.9923 54.1515 54.5616 55.6324 54.2102 57.0129L52.2775 64.3923C50.7464 70.2155 46.9312 70.7928 43.7686 65.6724L39.351 58.5189C38.5478 57.2137 36.6402 56.2348 35.1342 56.3101L26.7507 56.7368C20.7518 57.038 19.045 53.5742 22.9606 49.006L27.9304 43.233C28.8591 42.1537 29.2858 40.1456 28.8591 38.7902L26.2989 30.6578C24.818 25.8888 27.4786 23.2533 32.2226 24.8095L39.6271 27.2442C40.8821 27.6458 42.7646 27.3697 43.8188 26.5916L51.5496 21.0194C55.7413 18.0325 59.0796 19.7895 58.9792 24.935Z" fill="url(#paint6_linear_11580_76710)"></path><path d="M58.9792 24.935L58.8035 34.4479C58.7784 35.7531 59.6067 37.485 60.6609 38.2631L66.8857 42.982C70.8767 45.994 70.2241 49.6837 65.455 51.1897L57.3477 53.7248C55.9923 54.1515 54.5616 55.6324 54.2102 57.0129L52.2775 64.3923C50.7464 70.2155 46.9312 70.7928 43.7686 65.6724L39.351 58.5189C38.5478 57.2137 36.6402 56.2348 35.1342 56.3101L26.7507 56.7368C20.7518 57.038 19.045 53.5742 22.9606 49.006L27.9304 43.233C28.8591 42.1537 29.2858 40.1456 28.8591 38.7902L26.2989 30.6578C24.818 25.8888 27.4786 23.2533 32.2226 24.8095L39.6271 27.2442C40.8821 27.6458 42.7646 27.3697 43.8188 26.5916L51.5496 21.0194C55.7413 18.0325 59.0796 19.7895 58.9792 24.935Z" fill="url(#paint7_linear_11580_76710)"></path><path d="M58.9792 24.935L58.8035 34.4479C58.7784 35.7531 59.6067 37.485 60.6609 38.2631L66.8857 42.982C70.8767 45.994 70.2241 49.6837 65.455 51.1897L57.3477 53.7248C55.9923 54.1515 54.5616 55.6324 54.2102 57.0129L52.2775 64.3923C50.7464 70.2155 46.9312 70.7928 43.7686 65.6724L39.351 58.5189C38.5478 57.2137 36.6402 56.2348 35.1342 56.3101L26.7507 56.7368C20.7518 57.038 19.045 53.5742 22.9606 49.006L27.9304 43.233C28.8591 42.1537 29.2858 40.1456 28.8591 38.7902L26.2989 30.6578C24.818 25.8888 27.4786 23.2533 32.2226 24.8095L39.6271 27.2442C40.8821 27.6458 42.7646 27.3697 43.8188 26.5916L51.5496 21.0194C55.7413 18.0325 59.0796 19.7895 58.9792 24.935Z" fill="url(#paint8_linear_11580_76710)"></path></g><defs><filter id="filter0_d_11580_76710" x="0.539061" y="0.767578" width="88.8887" height="88.9219" filterUnits="userSpaceOnUse" color-interpolation-filters="sRGB"><feFlood flood-opacity="0" result="BackgroundImageFix"></feFlood><feColorMatrix in="SourceAlpha" type="matrix" values="0 0 0 0 0 0 0 0 0 0 0 0 0 0 0 0 0 0 127 0" result="hardAlpha"></feColorMatrix><feOffset dy="3.33594"></feOffset><feGaussianBlur stdDeviation="1.66797"></feGaussianBlur><feComposite in2="hardAlpha" operator="out"></feComposite><feColorMatrix type="matrix" values="0 0 0 0 0 0 0 0 0 0 0 0 0 0 0 0 0 0 0.25 0"></feColorMatrix><feBlend mode="normal" in2="BackgroundImageFix" result="effect1_dropShadow_11580_76710"></feBlend><feBlend mode="normal" in="SourceGraphic" in2="effect1_dropShadow_11580_76710" result="shape"></feBlend></filter><linearGradient id="paint0_linear_11580_76710" x1="71.2224" y1="53.2676" x2="71.2224" y2="83.0176" gradientUnits="userSpaceOnUse"><stop stop-color="white"></stop><stop offset="1" stop-color="white" stop-opacity="0"></stop></linearGradient><linearGradient id="paint1_linear_11580_76710" x1="71.2223" y1="53.2676" x2="71.2223" y2="83.0176" gradientUnits="userSpaceOnUse"><stop stop-color="#C7C7C7"></stop><stop offset="0.0001" stop-color="#C7C7C7"></stop><stop offset="0.484375" stop-color="#EEEEEE"></stop><stop offset="1" stop-color="#C7C7C7"></stop></linearGradient><linearGradient id="paint2_linear_11580_76710" x1="56.3535" y1="68.1426" x2="86.0913" y2="68.1426" gradientUnits="userSpaceOnUse"><stop stop-color="#C7C7C7"></stop><stop offset="0.0001" stop-color="#B0AEAE"></stop><stop offset="0.484375" stop-color="#EEEEEE"></stop><stop offset="1" stop-color="#B0AEAE"></stop></linearGradient><linearGradient id="paint3_linear_11580_76710" x1="18.7522" y1="0.767578" x2="18.7522" y2="30.5176" gradientUnits="userSpaceOnUse"><stop stop-color="white"></stop><stop offset="1" stop-color="white" stop-opacity="0"></stop></linearGradient><linearGradient id="paint4_linear_11580_76710" x1="18.7521" y1="0.767578" x2="18.7521" y2="30.5176" gradientUnits="userSpaceOnUse"><stop stop-color="#C7C7C7"></stop><stop offset="0.0001" stop-color="#C7C7C7"></stop><stop offset="0.484375" stop-color="#EEEEEE"></stop><stop offset="1" stop-color="#C7C7C7"></stop></linearGradient><linearGradient id="paint5_linear_11580_76710" x1="3.875" y1="15.6426" x2="33.6295" y2="15.6426" gradientUnits="userSpaceOnUse"><stop stop-color="#C7C7C7"></stop><stop offset="0.0001" stop-color="#B0AEAE"></stop><stop offset="0.484375" stop-color="#EEEEEE"></stop><stop offset="1" stop-color="#B0AEAE"></stop></linearGradient><linearGradient id="paint6_linear_11580_76710" x1="45.1786" y1="19.5635" x2="45.1786" y2="69.1657" gradientUnits="userSpaceOnUse"><stop stop-color="white"></stop><stop offset="1" stop-color="white" stop-opacity="0"></stop></linearGradient><linearGradient id="paint7_linear_11580_76710" x1="45.1784" y1="19.5635" x2="45.1784" y2="69.1657" gradientUnits="userSpaceOnUse"><stop stop-color="#C7C7C7"></stop><stop offset="0.0001" stop-color="#C7C7C7"></stop><stop offset="0.484375" stop-color="#EEEEEE"></stop><stop offset="1" stop-color="#C7C7C7"></stop></linearGradient><linearGradient id="paint8_linear_11580_76710" x1="20.8555" y1="44.3646" x2="69.5017" y2="44.3646" gradientUnits="userSpaceOnUse"><stop stop-color="#C7C7C7"></stop><stop offset="0.0001" stop-color="#B0AEAE"></stop><stop offset="0.484375" stop-color="#EEEEEE"></stop><stop offset="1" stop-color="#B0AEAE"></stop></linearGradient></defs></svg>