<svg width="110" height="110" viewBox="0 0 110 110" fill="none" xmlns="http://www.w3.org/2000/svg" class="propertyIcon-0-1-251"><path fill-rule="evenodd" clip-rule="evenodd" d="M110 55C110 85.3757 85.3757 110 55 110C24.6243 110 0 85.3757 0 55C0 24.6243 24.6243 0 55 0C85.3757 0 110 24.6243 110 55ZM68.75 22C68.75 29.5939 62.5939 35.75 55 35.75C47.4061 35.75 41.25 29.5939 41.25 22C41.25 14.4061 47.4061 8.25 55 8.25C62.5939 8.25 68.75 14.4061 68.75 22ZM22 60.5C29.5939 60.5 35.75 54.3439 35.75 46.75C35.75 39.1561 29.5939 33 22 33C14.4061 33 8.25 39.1561 8.25 46.75C8.25 54.3439 14.4061 60.5 22 60.5ZM49.5 85.25C49.5 92.8439 43.3439 99 35.75 99C28.1561 99 22 92.8439 22 85.25C22 77.6561 28.1561 71.5 35.75 71.5C43.3439 71.5 49.5 77.6561 49.5 85.25ZM74.25 99C81.8439 99 88 92.8439 88 85.25C88 77.6561 81.8439 71.5 74.25 71.5C66.6561 71.5 60.5 77.6561 60.5 85.25C60.5 92.8439 66.6561 99 74.25 99ZM63.25 55C63.25 59.5564 59.5564 63.25 55 63.25C50.4436 63.25 46.75 59.5564 46.75 55C46.75 50.4436 50.4436 46.75 55 46.75C59.5564 46.75 63.25 50.4436 63.25 55ZM88 60.5C95.5939 60.5 101.75 54.3439 101.75 46.75C101.75 39.1561 95.5939 33 88 33C80.4061 33 74.25 39.1561 74.25 46.75C74.25 54.3439 80.4061 60.5 88 60.5Z" fill="url(#paint0_linear_12695_86385)"></path><defs><linearGradient id="paint0_linear_12695_86385" x1="55" y1="0" x2="55" y2="110" gradientUnits="userSpaceOnUse"><stop stop-color="#7966EB"></stop><stop offset="1" stop-color="#7FC7FE"></stop></linearGradient></defs></svg>