<svg class="kidsIcon-0-1-243" width="200" height="58" viewBox="0 0 200 58" fill="none" xmlns="http://www.w3.org/2000/svg"><rect width="101.887" height="58" rx="6.05607" fill="url(#paint0_linear_12695_85963)"></rect><path d="M41.1358 14.9551L29.2675 20.281L29.0303 23.8309C29.0393 23.8309 29.177 23.9256 29.445 24.1151C29.7131 24.3045 30.0844 24.5977 30.5589 24.9894C31.0334 25.381 31.6003 25.8837 32.2631 26.4939C32.926 27.104 33.6577 27.8308 34.4564 28.6796C34.7981 29.0512 35.1145 29.4069 35.4054 29.7469C35.6952 30.0857 35.9488 30.4027 36.1498 30.6923C36.3301 30.9377 36.4786 31.2051 36.5917 31.4882C36.6762 31.685 36.6903 31.9051 36.6316 32.1112C36.5094 32.3999 36.2762 32.6267 35.985 32.7396C35.5539 32.9208 35.0987 33.0374 34.6339 33.0856C33.948 33.1683 33.2582 33.2146 32.5674 33.2241C31.7536 33.2423 30.8161 33.2514 29.7547 33.2514L21.956 33.2641C21.773 33.2617 21.5908 33.2391 21.4127 33.1967C21.2078 33.1509 21.0163 33.058 20.8531 32.9253C20.6641 32.7635 20.5153 32.5596 20.4184 32.3297C20.287 32.0039 20.2253 31.6539 20.2373 31.3024C20.2417 31.0185 20.2684 30.7353 20.317 30.4555C20.3695 30.1294 20.4347 29.7907 20.5144 29.4428C20.5941 29.0949 20.6756 28.7524 20.7643 28.4209C20.8531 28.0894 20.9346 27.8053 21.0143 27.5685L19.4658 27.0749L17.8991 26.5722C17.872 26.6523 17.8104 26.86 17.718 27.1933C17.6257 27.5266 17.517 27.9219 17.4083 28.3882C17.2997 28.8544 17.2 29.3335 17.1113 29.8453C17.0275 30.3198 16.9833 30.8005 16.9791 31.2824C16.9672 32.1442 17.1421 32.9982 17.4916 33.7851C17.6273 34.0863 17.7975 34.3705 17.9987 34.632C18.1656 34.8473 18.3471 35.0506 18.5421 35.2404C18.987 35.6628 19.5109 35.9921 20.0833 36.2094C20.6728 36.4313 21.2977 36.5431 21.9271 36.5391H29.7511C31.1916 36.5391 32.4889 36.5063 33.6432 36.4407C34.6598 36.3994 35.6667 36.2255 36.6388 35.9234C37.4158 35.6876 38.116 35.2474 38.6673 34.6484C39.2205 33.9807 39.5646 33.163 39.6561 32.2988C39.6751 32.2096 39.6843 32.1186 39.6833 32.0274V31.7432C39.6868 31.248 39.6084 30.7555 39.4515 30.2861C39.298 29.8291 39.0926 29.3915 38.8393 28.9819C38.5765 28.5538 38.2817 28.1464 37.9573 27.7634C37.6229 27.3651 37.2757 26.9632 36.9159 26.5576C36.0466 25.5862 35.2436 24.7586 34.5071 24.075C33.8557 23.4638 33.1739 22.8862 32.4642 22.3446L42.4489 17.9732L41.1358 14.9551Z" fill="white"></path><path d="M54.1499 29.5287C53.5776 28.6642 53.088 27.9198 52.6811 27.2956C52.2742 26.6715 51.9295 26.1488 51.6469 25.7274C51.3662 25.3012 51.1398 24.9606 50.9696 24.7001L50.5729 24.0972C50.4824 23.9551 50.419 23.8622 50.3918 23.8185C50.3716 23.7955 50.3556 23.7689 50.3447 23.7402L49.45 22.3486L46.6826 24.1519L51.5962 31.3574C51.724 31.5336 51.8203 31.7308 51.8806 31.9403C51.9297 32.092 51.922 32.2566 51.8588 32.4029C51.6428 32.8143 51.2444 33.0972 50.7866 33.1643C50.1661 33.2883 49.5305 33.3177 48.9013 33.2517C48.1201 33.179 47.3456 33.0457 46.5848 32.8528C45.7626 32.6501 44.9699 32.4163 44.2068 32.1516L43.2578 35.33L44.8262 35.8072C45.212 35.922 45.5797 36.0258 45.9328 36.1187C46.286 36.2116 46.6265 36.2899 46.9597 36.35C47.293 36.4101 47.6226 36.4593 47.9486 36.4957C48.2765 36.5308 48.606 36.5485 48.9357 36.5485C49.6205 36.543 50.3036 36.4765 50.9768 36.35C51.7825 36.2205 52.5509 35.918 53.2299 35.463C53.5555 35.2403 53.8503 34.9751 54.1064 34.6743C54.8181 33.8343 55.1344 32.726 54.974 31.6343C54.861 30.8788 54.5793 30.1589 54.1499 29.5287Z" fill="white"></path><path fill-rule="evenodd" clip-rule="evenodd" d="M81.2245 29.0003C81.4975 29.4277 81.7309 29.8795 81.9218 30.3499C82.0658 30.6987 82.1744 31.0612 82.246 31.4319C82.3029 31.7414 82.3332 32.0552 82.3365 32.3699C82.3411 32.6824 82.3082 32.9943 82.2387 33.2988C82.1847 33.5291 82.1121 33.7545 82.0214 33.9728C81.887 34.2585 81.7238 34.5295 81.5342 34.7815C81.281 35.1126 80.9705 35.3952 80.6178 35.6157C80.1599 35.9025 79.6634 36.1215 79.1435 36.266C78.4418 36.4563 77.7167 36.5452 76.9901 36.5301H67.9345C67.9331 37.5833 67.7161 38.6249 67.297 39.5901C66.8907 40.4405 66.2929 41.1839 65.551 41.7612C65.1418 42.083 64.7005 42.3613 64.2343 42.5918C63.7228 42.8382 63.1891 43.0352 62.6406 43.1801C61.994 43.3496 61.3351 43.4671 60.6701 43.5317C59.8539 43.611 59.0342 43.6487 58.2142 43.6446V40.346C58.9169 40.346 59.549 40.3205 60.0923 40.2731C60.5835 40.2331 61.0716 40.1619 61.5539 40.06C61.9386 39.9783 62.3138 39.8562 62.6732 39.6957C62.9754 39.5616 63.2571 39.3849 63.5099 39.1711C63.8627 38.8896 64.1486 38.5324 64.3466 38.1256C64.5597 37.618 64.6735 37.0738 64.6817 36.5228H62.6532C62.2033 36.5223 61.754 36.487 61.3094 36.4171C60.858 36.3471 60.4162 36.2249 59.9927 36.0528C59.5692 35.8803 59.1688 35.6551 58.801 35.3826C58.4216 35.1035 58.0921 34.7617 57.8266 34.3717C57.5339 33.9346 57.3114 33.454 57.1674 32.9473C56.9963 32.3346 56.9146 31.7002 56.9247 31.0639C56.9177 30.5195 56.9699 29.9759 57.0804 29.4429C57.1733 29.0127 57.3086 28.5929 57.4843 28.1897C57.6299 27.8553 57.8121 27.5382 58.0276 27.2444C58.2317 26.9748 58.4249 26.738 58.6072 26.534C59.1207 26.0143 59.7288 25.5988 60.3984 25.31C61.0819 25.0199 61.8172 24.8736 62.5591 24.8802C63.4043 24.8572 64.2439 25.0266 65.0149 25.3756C65.6749 25.6898 66.2492 26.1605 66.6884 26.7471C67.1408 27.3672 67.4653 28.0719 67.6429 28.8199C67.8514 29.672 67.953 30.5471 67.9453 31.4246V33.2187H77.211C77.3523 33.2187 77.5443 33.2132 77.7906 33.1987C78.0349 33.1866 78.2774 33.1512 78.515 33.093C78.7314 33.0435 78.9382 32.9586 79.1272 32.8417C79.2892 32.7476 79.3877 32.5726 79.3844 32.3845C79.3524 31.8979 79.2059 31.4259 78.957 31.0075C78.6321 30.4073 78.2647 29.8315 77.8576 29.2844C77.4103 28.676 76.9068 28.0604 76.3489 27.4375C75.7911 26.8145 75.2405 26.2207 74.69 25.6743C74.1394 25.1279 73.625 24.6416 73.1414 24.2172C72.6585 23.7922 72.2721 23.474 71.9823 23.2627L72.2413 20.2701L83.7003 14.9971L84.8992 17.8913L75.2568 22.1717C75.4183 22.3297 75.59 22.4996 75.7714 22.6792C75.9645 22.8704 76.1686 23.0725 76.3834 23.2828C76.7999 23.6908 77.2291 24.1388 77.6674 24.6015C78.1057 25.0641 78.5404 25.5468 78.9769 26.0459C79.4134 26.545 79.8209 27.0531 80.203 27.5431C80.5852 28.0331 80.9256 28.523 81.2245 29.0003ZM62.6485 33.2333H64.677V31.4319C64.6838 30.9977 64.6437 30.5641 64.5575 30.1387C64.4961 29.8275 64.3919 29.5265 64.2478 29.2444C64.1383 29.03 63.9917 28.8369 63.8149 28.6742C63.6717 28.5475 63.5121 28.4409 63.3404 28.3573C63.2001 28.291 63.0514 28.2444 62.8985 28.2189C62.7855 28.1981 62.671 28.1865 62.5562 28.1843C61.8907 28.1522 61.2433 28.4081 60.7776 28.8874C60.2896 29.5051 60.0545 30.2869 60.1202 31.0731C60.1094 31.4191 60.1887 31.7619 60.3502 32.0676C60.4953 32.3323 60.6977 32.5607 60.9425 32.736C61.1876 32.9108 61.4626 33.0386 61.7538 33.1131C62.0455 33.1925 62.3464 33.2329 62.6485 33.2333Z" fill="white"></path><path fill-rule="evenodd" clip-rule="evenodd" d="M149.124 14.9739H147.667H147.536C147.273 14.9739 147.024 15.1054 146.874 15.3251C146.784 15.4627 146.739 15.627 146.741 15.7933C146.741 18.5143 146.741 21.2352 146.741 23.9582C146.741 27.7614 146.741 31.5645 146.741 35.3677C146.741 36.7949 146.718 38.2139 147.739 39.3515C149.411 41.2141 152.755 41.364 155.101 41.5304C158.328 41.7583 161.994 41.6125 164.997 40.3023C165.137 40.3639 165.284 40.4194 165.436 40.4748C170 42.1115 175.092 42.5075 179.765 40.8568C180.1 40.7829 181.277 40.2017 181.513 40.3003C182.055 40.5241 182.614 40.7007 183.185 40.8301C185.594 41.3312 188.053 41.5365 190.512 41.4379H190.547C191.999 41.4379 193.463 41.2654 194.885 40.9862C196.107 40.7459 197.432 40.4851 198.42 39.6781C200.145 38.2693 199.779 35.8811 199.779 33.8973C199.779 31.8397 199.779 29.782 199.779 27.7264C199.779 27.2726 199.779 26.8188 199.779 26.3649C199.773 25.9132 199.412 25.5517 198.97 25.5538H197.384C196.46 25.5517 195.618 26.0959 195.222 26.9502C195.07 27.2726 194.989 27.6258 194.989 27.9852C194.989 29.2563 194.989 30.5295 194.989 31.8007C194.989 32.7474 194.989 33.694 194.989 34.6407C194.989 35.2999 195.224 36.6244 194.7 37.0824C194.449 37.3001 194.119 37.3986 193.796 37.4787C191.107 38.1523 188.275 38.1174 185.543 37.6512C183.586 37.3165 183.92 36.0104 183.92 34.4189C183.92 33.4846 183.92 32.5523 183.92 31.6179C183.92 30.1414 184.128 28.4883 183.773 27.0467C182.85 23.3031 177.126 23.3134 174.102 23.2353C172.414 23.1902 170.721 23.2949 169.049 23.5454C167.108 23.837 164.689 24.026 163.389 25.7016C162.041 27.4389 162.581 29.9053 162.581 31.9362C162.581 32.8911 162.581 33.846 162.581 34.8009C162.581 36.0844 162.711 37.1974 161.298 37.7477C160.799 37.9428 160.256 38.0024 159.722 38.0414C157.894 38.179 156.05 38.1194 154.234 37.8648C152.605 37.6368 151.328 37.0783 151.375 35.226C151.434 32.8377 151.521 30.4577 151.521 28.0612C151.521 26.0282 151.521 23.9931 151.521 21.9601C151.521 20.6048 151.521 19.2515 151.521 17.8961C151.521 17.7319 151.521 17.5696 151.521 17.4053C151.519 17.0295 151.43 16.6599 151.264 16.3231C150.859 15.4935 150.029 14.9719 149.124 14.9739ZM117.792 14.9739H119.377C120.012 14.9739 120.618 15.2306 121.068 15.6886L121.119 15.744C121.24 15.8734 121.347 16.0171 121.436 16.1691C121.655 16.5429 121.772 16.97 121.772 17.4053V40.6494C121.772 40.8671 121.688 41.0745 121.536 41.2285C121.384 41.3804 121.181 41.4646 120.967 41.4626H119.382C119.049 41.4626 118.722 41.3866 118.422 41.2408C118.145 41.1073 117.897 40.9246 117.685 40.6987C117.243 40.2284 116.991 39.6062 116.98 38.9552V15.7933C116.999 15.3456 117.354 14.9904 117.792 14.9822V14.9739ZM136.582 32.7391C137.387 32.6549 138.188 32.5584 138.983 32.4681C139.178 32.4455 139.371 32.4229 139.568 32.4229H139.577V36.8524C139.583 37.1009 139.498 37.3411 139.338 37.528C138.385 38.526 136.183 38.3412 134.924 38.3864C133.649 38.4316 132.369 38.3987 131.098 38.2878C130.204 38.2098 128.945 37.7991 128.29 38.641C128.16 38.8094 128.06 38.9963 127.99 39.1996C127.902 39.4481 127.836 39.7027 127.791 39.9614C127.694 40.3598 127.897 40.7726 128.269 40.9287C128.397 40.9779 128.536 41.0231 128.69 41.0662C132.34 41.6515 136.29 41.8076 139.92 41.019C140.704 40.8486 141.489 40.6247 142.177 40.214C143.033 39.7027 143.646 38.8957 143.882 37.9264C143.966 37.5732 144.007 37.2097 144.005 36.8462V19.7341C144.005 19.3624 143.956 18.9927 143.859 18.6354C143.05 15.6126 138.882 15.2943 136.294 15.0581C134.403 14.8836 132.492 14.9329 130.611 15.206C128.951 15.4463 126.774 15.6927 125.503 16.894L125.449 16.9474C125.17 17.2534 124.938 17.6004 124.757 17.9762C124.658 18.1836 124.576 18.3993 124.51 18.621C124.363 19.1488 124.289 19.695 124.287 20.2433V20.422V28.5355C124.28 28.5951 124.28 28.6567 124.287 28.7162C124.319 28.9545 124.365 29.1886 124.428 29.4206C124.603 30.1106 124.95 30.739 125.439 31.2462C125.542 31.353 125.65 31.4536 125.763 31.546C126.283 31.9567 126.877 32.2566 127.511 32.4291C130.475 33.2258 133.552 33.0574 136.582 32.7391ZM139.57 20.0051V28.9093C136.337 29.2912 133.15 29.7841 129.896 29.322C129.785 29.3036 129.676 29.2769 129.569 29.242C129.512 29.2255 129.456 29.2091 129.403 29.1865C129.282 29.1393 129.167 29.0695 129.068 28.9832C128.974 28.9011 128.898 28.7984 128.844 28.6854C128.77 28.5294 128.723 28.361 128.701 28.1885V27.3178V25.3567V23.3729V21.344V21.0319C128.67 20.2454 128.881 19.3829 129.68 19.0728C129.966 18.9619 130.272 18.9209 130.576 18.8818C132.077 18.6888 133.589 18.5245 135.105 18.5512C136.528 18.5759 138.079 18.695 139.336 19.4219C139.416 19.5041 139.478 19.6006 139.521 19.7074C139.554 19.8018 139.572 19.9024 139.57 20.0051ZM170.828 37.875C171.59 37.9408 172.414 37.9736 173.258 37.9736H173.55C174.515 37.9695 175.478 37.91 176.438 37.797C177.292 37.7621 178.126 37.5218 178.872 37.0947L178.907 37.0557C178.981 36.9838 179.04 36.8955 179.081 36.801C179.116 36.7045 179.133 36.6039 179.128 36.5012V28.283C179.128 28.1803 179.11 28.0797 179.071 27.9852C179.03 27.8887 178.97 27.8024 178.896 27.7305L178.876 27.71C178.773 27.6217 178.66 27.5498 178.539 27.4944C176.824 26.9584 175.033 26.7284 173.244 26.8147C172.036 26.8729 169.399 26.9543 167.62 27.7039L167.593 27.7347C167.556 27.7716 167.523 27.8106 167.495 27.8538C167.466 27.8969 167.441 27.9421 167.421 27.9893C167.382 28.0838 167.363 28.1844 167.363 28.2871V36.5053C167.363 36.608 167.382 36.7086 167.421 36.8031C167.456 36.8852 167.503 36.9612 167.56 37.0269L167.593 37.0577L167.63 37.0988C167.72 37.1748 167.821 37.2384 167.928 37.2877C168.852 37.6389 169.826 37.8381 170.812 37.8771L170.828 37.875ZM198.307 17.816H196.553C195.622 17.814 194.866 18.582 194.86 19.5328V20.884C194.866 21.8348 195.624 22.6029 196.553 22.6029H198.307C199.237 22.6049 199.993 21.8369 199.999 20.884V19.5349C199.993 18.582 199.237 17.814 198.307 17.816Z" fill="#D3386A"></path><defs><linearGradient id="paint0_linear_12695_85963" x1="-36.0296" y1="-70.9799" x2="-68.3298" y2="92.2513" gradientUnits="userSpaceOnUse"><stop stop-color="#FEC86A"></stop><stop offset="0.498" stop-color="#F75833"></stop><stop offset="1" stop-color="#B41C9B"></stop></linearGradient></defs></svg>