<svg width="96" height="56" viewBox="0 0 96 56" fill="none" xmlns="http://www.w3.org/2000/svg"><path fill-rule="evenodd" clip-rule="evenodd" d="M90.9465 42.6477C90.8869 42.6516 90.8274 42.6589 90.7678 42.6589C88.4454 42.6595 86.123 42.6585 83.8006 42.6621C83.6861 42.6623 83.6262 42.6298 83.5698 42.5263C80.6524 37.1704 77.7316 31.8164 74.8104 26.4627C74.7846 26.4153 74.769 26.3594 74.7167 26.3252C73.9746 27.6848 73.2327 29.0435 72.4914 30.4025C70.2859 34.4455 68.0803 38.4885 65.877 42.5327C65.8287 42.6214 65.7805 42.6624 65.6726 42.6622C63.3352 42.6585 60.9978 42.6594 58.6605 42.6594H58.5039C63.9146 32.7407 69.3134 22.8437 74.7138 12.9438C74.7761 12.9717 74.7878 13.0355 74.8142 13.0839C77.1241 17.3154 79.4325 21.5478 81.7409 25.7802C84.7812 31.3544 87.8213 36.9287 90.8625 42.5024C90.8849 42.5435 90.8945 42.5971 90.9465 42.6175V42.6477Z" fill="#002B67"></path><path fill-rule="evenodd" clip-rule="evenodd" d="M6.73633 19.6692C6.77592 19.6662 6.8155 19.6606 6.85509 19.6606C7.6791 19.6601 8.50313 19.6626 9.32711 19.6573C9.43937 19.6566 9.46655 19.6844 9.46619 19.7975C9.46196 21.2014 9.47542 22.6054 9.45965 24.0091C9.44704 25.1304 10.3764 26.0039 11.3247 26.1315C11.4334 26.1461 11.5431 26.161 11.6523 26.1614C12.4763 26.164 13.3006 26.1773 14.1242 26.1588C14.8756 26.1419 15.4878 25.8106 15.9566 25.2214C16.194 24.9231 16.3115 24.5731 16.3293 24.1908C16.3344 24.0803 16.3347 23.9695 16.3347 23.8588C16.3349 20.2812 16.3358 16.7036 16.3317 13.126C16.3316 12.9853 16.358 12.939 16.5082 12.9406C17.2971 12.9489 18.0863 12.9483 18.8753 12.941C19.0205 12.9397 19.0667 12.967 19.0663 13.1264C19.0604 15.6826 19.0623 18.2388 19.0619 20.7949C19.0619 20.916 19.0633 21.037 19.0963 21.1541C19.1956 21.5064 19.4189 21.6761 19.8172 21.6896C20.0866 21.6986 20.3564 21.6942 20.6261 21.6942C25.2255 21.6944 29.825 21.6944 34.4244 21.694C34.539 21.6939 34.6541 21.7013 34.7678 21.677C35.2072 21.5833 35.3218 21.4793 35.35 20.9936C35.3859 20.3768 35.3627 19.7564 35.3646 19.1375C35.3653 18.9093 35.3647 18.9093 35.5943 18.9093C36.3784 18.9093 37.1624 18.9113 37.9465 18.907C38.0571 18.9063 38.0994 18.9257 38.0978 19.0514C38.0878 19.8211 38.1056 20.5916 38.0795 21.3606C38.0376 22.5951 37.107 23.8931 36.0054 24.2979C35.7162 24.4042 35.4177 24.4494 35.1105 24.4493C29.9667 24.449 24.8229 24.4491 19.6792 24.4502C19.4476 24.4503 19.2497 24.3767 19.0748 24.1899C19.0588 24.3958 19.0486 24.5827 19.0289 24.7685C18.9164 25.8265 18.4711 26.72 17.699 27.443C16.9499 28.1445 16.0872 28.6358 15.0732 28.8322C14.828 28.8797 14.5807 28.9132 14.3304 28.9136C13.3316 28.9155 12.3328 28.924 11.3341 28.9153C10.2316 28.9057 9.28224 28.4958 8.48089 27.7423C7.60699 26.9205 7.01638 25.9339 6.81041 24.7334C6.78164 24.5659 6.76081 24.397 6.73633 24.2287V19.6692Z" fill="#002B67"></path><path fill-rule="evenodd" clip-rule="evenodd" d="M11.6214 43.3422C11.3034 43.2858 10.9801 43.2651 10.6644 43.191C9.53883 42.9266 8.54119 42.4364 7.7889 41.5236C7.30368 40.9348 7.05812 40.2584 7.06136 39.4841C7.06963 37.5117 7.06582 35.5391 7.06055 33.5667C7.06019 33.4248 7.10002 33.3914 7.23275 33.3985C7.45217 33.4103 7.67106 33.4151 7.88671 33.4654C8.46018 33.5993 8.77035 33.9774 8.77326 34.5698C8.77784 35.5108 8.77509 36.4517 8.77527 37.3927C8.77542 38.0167 8.78462 38.6408 8.7732 39.2645C8.75372 40.3314 9.26684 41.0662 10.1647 41.5618C10.6146 41.8102 11.1042 41.9211 11.6166 41.9224C12.4506 41.9245 13.2846 41.9232 14.1186 41.923C15.7611 41.9226 17.0335 40.6484 17.0358 38.9919C17.0393 36.4709 17.0367 33.9499 17.0367 31.4289C17.0367 30.9912 17.0378 30.5534 17.0357 30.1156C17.0353 30.041 17.0438 29.9852 17.1182 29.9418C17.7103 29.5966 18.2369 29.1696 18.6872 28.6491C18.6992 28.6354 18.7147 28.6248 18.7328 28.609C18.7657 28.6673 18.7495 28.7228 18.7496 28.7751C18.7506 30.8382 18.7514 32.9013 18.7497 34.9643C18.7494 35.3915 18.8038 35.8074 18.9883 36.1961C19.3128 36.8799 19.8584 37.245 20.6062 37.2742C21.1398 37.295 21.675 37.288 22.2091 37.2758C22.9946 37.2576 23.6306 36.7028 23.8466 35.8652C23.9033 35.6455 23.9321 35.422 23.932 35.1942C23.931 33.8356 23.9315 32.477 23.9315 31.1184C23.9315 30.9321 23.9321 30.746 23.9816 30.5643C24.1464 29.9596 24.5916 29.7028 25.1613 29.6046C25.274 29.5852 25.3899 29.5853 25.5036 29.5706C25.6039 29.5575 25.652 29.5856 25.6395 29.6976C25.6306 29.7771 25.6378 29.8585 25.6378 29.939C25.6378 31.8461 25.6166 33.7535 25.6473 35.6601C25.6613 36.5334 25.3187 37.1963 24.6844 37.7352C23.8868 38.4127 22.9711 38.7854 21.9149 38.772C21.4605 38.7662 21.0059 38.7736 20.5516 38.7666C19.9079 38.7566 19.3165 38.5667 18.7505 38.1989C18.7505 38.2703 18.7507 38.3216 18.7504 38.373C18.7478 38.8409 18.7655 39.31 18.7379 39.7764C18.6912 40.5641 18.3398 41.2202 17.7992 41.776C17.0637 42.5323 16.1521 42.9582 15.1404 43.1925C14.8295 43.2645 14.5113 43.2842 14.1987 43.3422H11.6214Z" fill="#002B67"></path><path fill-rule="evenodd" clip-rule="evenodd" d="M52.1678 11.8788C52.4989 11.9549 52.7983 12.088 53.0379 12.3419C53.4889 12.8196 53.5744 13.5542 53.2402 14.1277C52.9014 14.7091 52.2152 14.987 51.5628 14.807C50.9357 14.6339 50.4915 14.0499 50.4864 13.3916C50.4806 12.6568 50.966 12.054 51.6815 11.9062C51.7046 11.9014 51.726 11.8881 51.7482 11.8788H52.1678Z" fill="#FE5500"></path><path fill-rule="evenodd" clip-rule="evenodd" d="M39.5778 17.2777C39.5778 15.889 39.5802 14.5002 39.5742 13.1114C39.5736 12.9691 39.6151 12.9403 39.7478 12.9414C40.5468 12.9476 41.3459 12.9477 42.1449 12.9412C42.2754 12.9401 42.3099 12.9698 42.3097 13.1053C42.3056 15.6011 42.3072 18.0968 42.3081 20.5925C42.3082 20.8246 42.3298 21.0546 42.3941 21.2786C42.4717 21.5485 42.57 21.6315 42.845 21.6621C43.0387 21.6837 43.2329 21.6953 43.428 21.6949C44.0972 21.6934 44.7663 21.6947 45.4355 21.6937C45.505 21.6935 45.5764 21.6931 45.6437 21.678C46.0797 21.5808 46.2217 21.4028 46.2266 20.9228C46.2329 20.2989 46.234 19.6749 46.2253 19.0511C46.2233 18.9069 46.2692 18.8823 46.3993 18.8833C47.2032 18.8891 48.0072 18.8885 48.8112 18.8836C48.9254 18.8829 48.9623 18.9077 48.961 19.0304C48.9544 19.6795 48.957 20.3286 48.9583 20.9777C48.9591 21.4109 49.1564 21.6957 49.5602 21.848C49.781 21.9313 50.0016 21.9955 50.2449 21.9371C50.5843 21.8556 50.7598 21.6524 50.7607 21.2996C50.7627 20.5448 50.7635 19.79 50.7591 19.0353C50.7584 18.9235 50.778 18.8818 50.9027 18.8828C51.6917 18.8894 52.4807 18.8882 53.2697 18.8837C53.3734 18.8831 53.4034 18.9081 53.4026 19.0153C53.3975 19.6795 53.4075 20.3438 53.3983 21.0079C53.3875 21.795 54.2858 22.1654 54.8154 21.8631C55.0384 21.7358 55.1425 21.5328 55.1429 21.2772C55.1442 20.5325 55.1463 19.7878 55.1406 19.0431C55.1397 18.9211 55.166 18.8821 55.2938 18.8831C56.1077 18.8892 56.9218 18.8875 57.7358 18.8844C57.8297 18.8841 57.8775 18.8918 57.8762 19.0097C57.8671 19.8348 57.8854 20.6606 57.8568 21.4849C57.827 22.3442 57.5931 23.1424 56.9902 23.787C56.112 24.7259 54.799 24.9776 53.5775 24.4522C53.1926 24.2867 52.8492 24.0568 52.545 23.7692C52.4741 23.7022 52.4386 23.703 52.3691 23.7708C51.9356 24.1937 51.4409 24.5119 50.8446 24.6502C50.0806 24.8275 49.3947 24.6244 48.7519 24.2141C48.4639 24.0303 48.2042 23.8097 47.966 23.5652C47.8957 23.493 47.8566 23.4998 47.7862 23.562C47.1757 24.1018 46.4653 24.3658 45.65 24.3581C44.6713 24.3489 43.6923 24.3622 42.7137 24.3492C42.2435 24.343 41.7827 24.2522 41.3355 24.0979C40.5601 23.8304 40.1168 23.2424 39.822 22.5115C39.6568 22.102 39.5762 21.6759 39.577 21.2327C39.5794 19.9144 39.5779 18.5961 39.5778 17.2777" fill="#002B67"></path><path fill-rule="evenodd" clip-rule="evenodd" d="M79.148 38.6471C79.1448 41.1194 77.1619 43.1057 74.7027 43.1001C72.2668 43.0946 70.2964 41.0868 70.3008 38.6144C70.3051 36.1671 72.2975 34.1733 74.7352 34.1768C77.1793 34.1803 79.1512 36.178 79.148 38.6471" fill="#FE5500"></path><path fill-rule="evenodd" clip-rule="evenodd" d="M27.1474 31.4989C27.1474 30.0798 27.1491 28.6607 27.1445 27.2416C27.1441 27.1213 27.1762 27.0905 27.2925 27.0944C27.5981 27.1048 27.9002 27.127 28.1877 27.2432C28.607 27.4126 28.8163 27.7343 28.8519 28.1793C28.8594 28.2744 28.857 28.3704 28.857 28.466C28.8573 30.7305 28.8568 32.995 28.8575 35.2596C28.8578 35.918 29.0654 36.484 29.599 36.8963C29.9383 37.1584 30.3293 37.2908 30.7533 37.298C31.3973 37.3088 32.042 37.3107 32.686 37.2988C33.6926 37.2801 34.5038 36.4414 34.5114 35.3986C34.5224 33.894 34.5154 32.3893 34.5147 30.8847C34.5146 30.7332 34.5189 30.5825 34.555 30.4351C34.6555 30.0244 34.9243 29.7796 35.3184 29.6657C35.5795 29.5903 35.8483 29.5748 36.1188 29.5737C36.1903 29.5734 36.2204 29.5957 36.2135 29.6682C36.2102 29.7031 36.213 29.7386 36.213 29.7738C36.213 31.6962 36.1937 33.6188 36.2216 35.5407C36.2346 36.4374 35.8924 37.1387 35.2609 37.7235C34.5344 38.3963 33.6742 38.7553 32.6843 38.7669C31.9754 38.7753 31.2634 38.8162 30.5578 38.7466C29.2709 38.6197 28.2063 38.0783 27.5013 36.9414C27.2524 36.5401 27.1468 36.0934 27.1471 35.6203C27.1481 34.2465 27.1474 32.8727 27.1474 31.4989" fill="#002B67"></path><path fill-rule="evenodd" clip-rule="evenodd" d="M50.2642 17.8588C49.4435 17.8585 48.781 17.1898 48.7832 16.3642C48.7855 15.5413 49.457 14.8701 50.2732 14.8749C51.0844 14.8797 51.7449 15.548 51.7465 16.3657C51.7482 17.1914 51.0854 17.8592 50.2642 17.8588" fill="#002B67"></path><path fill-rule="evenodd" clip-rule="evenodd" d="M52.1621 16.365C52.1622 15.5433 52.8211 14.8771 53.6357 14.875C54.4554 14.873 55.1244 15.5482 55.119 16.3722C55.1137 17.1993 54.4595 17.8585 53.6435 17.8591C52.8173 17.8597 52.162 17.1987 52.1621 16.365" fill="#002B67"></path><path fill-rule="evenodd" clip-rule="evenodd" d="M36.4973 17.8025C35.6975 17.8011 35.0553 17.1529 35.0547 16.3463C35.0541 15.5331 35.7022 14.875 36.5031 14.8757C37.304 14.8765 37.9576 15.5367 37.9574 16.3448C37.9572 17.1526 37.305 17.8038 36.4973 17.8025" fill="#002B67"></path><path fill-rule="evenodd" clip-rule="evenodd" d="M33.2428 17.8024C32.4448 17.799 31.7988 17.1465 31.7988 16.3439C31.7988 15.5361 32.454 14.8749 33.2537 14.8757C34.0557 14.8765 34.7025 15.5342 34.7008 16.3471C34.6991 17.1612 34.0532 17.8059 33.2428 17.8024" fill="#002B67"></path><path fill-rule="evenodd" clip-rule="evenodd" d="M23.2542 43.0768C23.0446 43.0768 22.8349 43.0804 22.6254 43.0757C22.433 43.0715 22.3206 42.9561 22.3191 42.7617C22.3163 42.3896 22.3207 42.0175 22.3164 41.6455C22.3155 41.5598 22.341 41.5346 22.4258 41.5354C22.835 41.5395 23.2443 41.5348 23.6536 41.5383C23.8749 41.5402 23.993 41.663 23.9945 41.8875C23.997 42.2446 23.9906 42.6017 23.998 42.9585C24.0003 43.0666 23.9582 43.0813 23.868 43.079C23.6635 43.0737 23.4588 43.0773 23.2542 43.0773V43.0768Z" fill="#002B67"></path><path fill-rule="evenodd" clip-rule="evenodd" d="M21.1923 43.0772C20.9928 43.0771 20.7933 43.0794 20.5939 43.0764C20.3835 43.0733 20.2675 42.9631 20.2646 42.7516C20.2596 42.3798 20.265 42.0079 20.2617 41.6361C20.261 41.5541 20.2934 41.5354 20.368 41.5359C20.7819 41.5387 21.1959 41.5346 21.6098 41.5386C21.8197 41.5406 21.9359 41.658 21.9378 41.8651C21.9409 42.232 21.9351 42.5989 21.9413 42.9656C21.943 43.0646 21.9072 43.0814 21.8207 43.0791C21.6113 43.0736 21.4018 43.0773 21.1923 43.0772" fill="#002B67"></path><path fill-rule="evenodd" clip-rule="evenodd" d="M31.899 43.0771C31.6995 43.077 31.5 43.0793 31.3006 43.0764C31.0863 43.0733 30.9728 42.9669 30.97 42.755C30.9651 42.3832 30.9699 42.0113 30.9668 41.6395C30.9662 41.5616 30.9906 41.5351 31.0694 41.5357C31.4883 41.5389 31.9073 41.5335 32.3261 41.5391C32.5237 41.5416 32.641 41.6612 32.6443 41.8633C32.6504 42.2351 32.6442 42.607 32.6481 42.9788C32.649 43.0619 32.6168 43.0799 32.5424 43.0786C32.328 43.0748 32.1135 43.0773 31.899 43.0771" fill="#002B67"></path><path fill-rule="evenodd" clip-rule="evenodd" d="M56.2645 35.3042C56.2642 35.6778 56.2314 36.0466 56.0988 36.4008C55.8416 37.0879 55.2914 37.5018 54.5627 37.5167C53.8239 37.5318 53.0844 37.5303 52.3455 37.5191C51.2942 37.5031 50.6439 36.872 50.615 35.8077C50.5899 34.8826 50.6098 33.9562 50.6098 33.0304H50.603C50.603 32.1649 50.6028 31.2994 50.6032 30.434C50.6033 30.1859 50.6404 29.9438 50.721 29.7086C50.9481 29.0449 51.5043 28.6041 52.1994 28.5796C53.0178 28.5508 53.8377 28.5484 54.6559 28.5798C55.5181 28.6129 56.1689 29.2802 56.2427 30.1725C56.2567 30.3427 56.2637 30.514 56.2639 30.6849C56.2655 32.2247 56.2653 33.7644 56.2645 35.3042M45.4553 35.5211C45.4552 35.8722 45.3936 36.2126 45.2414 36.5296C44.9303 37.1775 44.4101 37.5222 43.6988 37.5388C42.9802 37.5555 42.2608 37.5503 41.5419 37.5405C40.5819 37.5273 39.9189 36.9053 39.8159 35.9426C39.8003 35.7971 39.7932 35.652 39.7933 35.506C39.7936 34.6859 39.7934 33.8659 39.7934 33.0458C39.7934 32.2157 39.7941 31.3856 39.7931 30.5555C39.7927 30.2926 39.8181 30.0331 39.8934 29.7809C40.1061 29.0695 40.6386 28.6324 41.451 28.5954C42.2728 28.558 43.0992 28.5415 43.9206 28.6072C44.7477 28.6735 45.3228 29.2604 45.4257 30.0895C45.4411 30.2139 45.4544 30.3397 45.4545 30.4649C45.4563 32.1503 45.4559 33.8356 45.4553 35.5211M57.9711 30.2224C57.972 29.5099 57.7152 28.9072 57.2116 28.4148C56.4862 27.7055 55.5996 27.3706 54.6014 27.3436C53.8329 27.3229 53.0633 27.3336 52.2943 27.341C51.5709 27.3481 50.8926 27.5388 50.2773 27.9217C49.3671 28.4881 48.8665 29.2768 48.8869 30.3986C48.916 31.9931 48.892 33.5886 48.8892 35.1836C48.889 35.2991 48.8828 35.4151 48.8711 35.53C48.814 36.0874 48.458 36.5002 47.921 36.6414C47.7206 36.6941 47.5169 36.6939 47.3124 36.7036C47.1835 36.7097 47.1603 36.6681 47.1605 36.546C47.1646 34.4478 47.1619 32.3495 47.1645 30.2511C47.1652 29.7034 47.01 29.2068 46.6799 28.7766C45.9612 27.8401 44.9829 27.3955 43.8311 27.347C43.0335 27.3134 42.2331 27.3276 41.4343 27.3439C40.6464 27.36 39.9245 27.6085 39.2849 28.0737C38.4891 28.6524 38.068 29.4169 38.0803 30.4338C38.1022 32.235 38.0878 34.0366 38.0857 35.838C38.085 36.4121 38.2516 36.9297 38.605 37.3771C39.27 38.2189 40.1607 38.6574 41.2078 38.7455C42.0684 38.8178 42.9347 38.7725 43.7985 38.7649C44.341 38.7602 44.8503 38.6074 45.3342 38.3639C45.3767 38.3425 45.4144 38.3032 45.4803 38.3113C45.4803 38.3604 45.4802 38.409 45.4802 38.4575C45.4802 38.8701 45.4652 39.2835 45.4836 39.6952C45.5152 40.4017 45.178 40.8824 44.5993 41.219C44.094 41.5129 43.5375 41.6178 42.9609 41.62C41.9571 41.6238 40.9533 41.6186 39.9495 41.6223C39.3795 41.6244 38.9585 41.9211 38.7516 42.4553C38.6953 42.6008 38.666 42.7528 38.6391 42.9068C38.6158 43.0398 38.6441 43.0751 38.7835 43.0746C40.3117 43.0692 41.8399 43.0691 43.3681 43.0722C44.0296 43.0735 44.6543 42.9224 45.2398 42.6187C46.3678 42.0337 47.0408 41.1218 47.1699 39.8332C47.2242 39.2914 47.1881 38.7472 47.1892 38.2042C47.1894 38.0604 47.2192 38.0168 47.3662 38.0256C48.0976 38.0696 48.7072 37.8198 49.1651 37.2323C49.2274 37.1524 49.2491 37.1841 49.2878 37.2461C49.3756 37.3872 49.4804 37.5156 49.5998 37.6308C50.3191 38.3247 51.1968 38.6654 52.1712 38.7467C52.9325 38.8102 53.6985 38.7773 54.4623 38.762C55.0736 38.7498 55.6582 38.6053 56.206 38.3317C57.2974 37.7866 57.9661 36.9486 57.9692 35.672C57.9737 33.8554 57.969 32.0389 57.9711 30.2224" fill="#002B67"></path></svg>