<svg width="97" height="56" viewBox="0 0 97 56" fill="none" xmlns="http://www.w3.org/2000/svg"><path fill-rule="evenodd" clip-rule="evenodd" d="M32.1289 48.8113H30.4772C30.0226 48.8113 29.654 48.4241 29.654 47.9466C29.654 47.469 30.0226 47.0819 30.4772 47.0819H34.1725V45.3524H30.4772C29.1134 45.3524 28.0078 46.5139 28.0078 47.9466C28.0078 49.3793 29.1134 50.5407 30.4772 50.5407H32.1289C32.5835 50.5407 32.952 50.9279 32.952 51.4054C32.952 51.883 32.5835 52.2702 32.1289 52.2702H28.4107V53.9996H32.1289C33.4926 53.9996 34.5982 52.8382 34.5982 51.4054C34.5982 49.9727 33.4926 48.8113 32.1289 48.8113ZM40.3451 48.8113H37.0581V45.3524H35.4064V53.9996H37.0526L37.0581 50.5407H40.3451V53.9996H41.9913V45.3524H40.3451V48.8113ZM50.2228 47.0819V45.3524H56.8077V47.0819H54.3384V53.9996H52.6921V47.0819H50.2228ZM65.4509 52.2702H69.5665V53.9996H65.4509H63.8047V45.3524H65.4509V52.2702ZM42.8164 53.9996L47.3435 45.3524L51.8707 53.9996H49.8129L47.3435 49.2437L44.8742 53.9996H42.8164ZM62.9811 45.3524V47.0819H59.2771V48.8113H62.5695V50.5407H59.2771V52.2702H62.9811V53.9996H59.2771H57.6309V45.3524H59.2771H62.9811Z" fill="#002A63"></path><ellipse cx="47.3442" cy="52.7026" rx="1.23285" ry="1.29708" fill="#F26322"></ellipse><path fill-rule="evenodd" clip-rule="evenodd" d="M48.8056 2.35059L28.332 41.6135H37.6566L48.8056 20.0938L59.9546 41.6135H69.2792L48.8056 2.35059Z" fill="#002A63"></path><ellipse cx="48.8052" cy="35.852" rx="5.47314" ry="5.76141" fill="#F26322"></ellipse></svg>