<svg width="97" height="56" viewBox="0 0 97 56" fill="none" xmlns="http://www.w3.org/2000/svg"><path fill-rule="evenodd" clip-rule="evenodd" d="M65.4337 24.0607L68.5401 20.9452C56.6896 9.15022 37.6527 9.01971 25.6432 20.5537L25.2461 20.946L28.3485 24.0614C38.4876 13.9835 54.7527 13.8572 65.0454 23.6825L65.4337 24.0607ZM59.222 30.2933L62.3282 27.1778C53.8913 18.8078 40.3778 18.6946 31.8036 26.838L31.4551 27.1771L34.5593 30.294C41.2967 23.6291 52.0651 23.5318 58.9203 30.0021L59.222 30.2933ZM56.1166 33.4101L53.0106 36.5255L52.7842 36.3131C49.3677 33.2062 44.1028 33.2772 40.7709 36.5261L37.666 33.4092L37.9296 33.1563C43.066 28.3687 51.082 28.4533 56.1166 33.4101ZM46.8908 42.6669L49.9044 39.6434C48.2628 38.0881 45.719 38.0434 44.0256 39.5092L43.8789 39.6436L46.8908 42.6669Z" fill="#484848"></path><mask id="mask0_28359_183683" maskUnits="userSpaceOnUse" x="25" y="12" width="44" height="31"><path fill-rule="evenodd" clip-rule="evenodd" d="M65.4337 24.0607L68.5401 20.9452C56.6896 9.15022 37.6527 9.01971 25.6432 20.5537L25.2461 20.946L28.3485 24.0614C38.4876 13.9835 54.7527 13.8572 65.0454 23.6825L65.4337 24.0607ZM59.222 30.2933L62.3282 27.1778C53.8913 18.8078 40.3778 18.6946 31.8036 26.838L31.4551 27.1771L34.5593 30.294C41.2967 23.6291 52.0651 23.5318 58.9203 30.0021L59.222 30.2933ZM56.1166 33.4101L53.0106 36.5255L52.7842 36.3131C49.3677 33.2062 44.1028 33.2772 40.7709 36.5261L37.666 33.4092L37.9296 33.1563C43.066 28.3687 51.082 28.4533 56.1166 33.4101ZM46.8908 42.6669L49.9044 39.6434C48.2628 38.0881 45.719 38.0434 44.0256 39.5092L43.8789 39.6436L46.8908 42.6669Z" fill="white"></path></mask><g mask="url(#mask0_28359_183683)"><path fill-rule="evenodd" clip-rule="evenodd" d="M73.5587 -1.22095V51.6634H20.8555V-1.22095H73.5587Z" fill="#99C14D"></path></g></svg>